<svg width="112" height="54" viewBox="0 0 112 54" fill="none" xmlns="http://www.w3.org/2000/svg">
<path fill-rule="evenodd" clip-rule="evenodd" d="M102.478 45.6498C94.9977 47.1399 79.6776 51.8397 77.6425 53.2627C76.4978 54.0631 75.1564 54.2436 74.7339 53.6395C73.8001 52.304 77.5144 48.9493 81.8573 47.2382C84.7377 46.0763 84.7599 46.108 80.4498 45.9023C70.4596 45.36 52.2268 39.5976 49.6635 36.1349C48.8979 35.1078 30.9807 40.1558 9.01115 19.2992C2.35836 12.9672 -2.03861 2.54852 1.19493 0.808285C1.74816 0.516134 2.38691 0.684974 2.75222 1.1397L6.12229 5.55302C24.1903 29.0904 43.9924 30.3942 44.0464 30.4038C43.9417 30.0509 37.9851 23.5635 44.3089 14.5966C47.0953 10.6597 51.5436 7.88068 56.3972 8.3218C71.9495 9.70927 73.9279 26.0804 59.3792 32.5605C57.4175 33.4114 57.2523 33.2428 61.7649 35.2953C69.5285 38.8148 81.8699 41.0271 93.3639 40.944C97.636 40.8921 97.6487 40.978 92.4308 38.1877C80.1234 31.6907 75.6954 25.6967 83.8862 26.6449C85.7424 26.862 86.4383 27.1801 94.713 31.9046C97.8748 33.7181 102.883 36.2764 105.829 37.5779C111.352 40.06 111.835 40.4797 110.823 41.9446C109.529 43.7494 107.589 44.632 102.478 45.6498ZM63.4071 24.9146C66.458 19.7986 60.8856 14.1314 52.2941 13.5581C47.9713 13.2666 45.7283 17.439 47.4675 22.567C48.5149 25.6222 52.578 30.2142 54.0911 30.0084C57.6673 29.6383 62.0486 27.2375 63.4071 24.9146Z" fill="#9333EA"/>
</svg>
